<?xml version="1.0" standalone="no"?>
<!DOCTYPE svg PUBLIC "-//W3C//DTD SVG 20010904//EN"
 "http://www.w3.org/TR/2001/REC-SVG-20010904/DTD/svg10.dtd">
<svg version="1.0" xmlns="http://www.w3.org/2000/svg"
 width="300.000000pt" height="300.000000pt" viewBox="0 0 300.000000 300.000000"
 preserveAspectRatio="xMidYMid meet">

<g transform="translate(0.000000,300.000000) scale(0.100000,-0.100000)"
fill="#000000" stroke="none">
<path d="M10 1500 l0 -1500 1495 0 1495 0 0 1500 0 1500 -1495 0 -1495 0 0
-1500z m2280 825 l0 -115 -329 0 c-373 0 -341 8 -341 -91 l0 -59 -115 0 -115
0 0 75 0 75 -332 2 -332 3 0 108 c-1 60 1 111 3 113 2 2 355 4 783 4 l778 0 0
-115z m-10 -470 l0 -115 -660 0 -660 0 0 -105 0 -105 170 0 171 0 -3 -112 -3
-113 -167 -3 -168 -2 0 -100 0 -100 660 0 660 0 0 -110 0 -110 -775 0 -775 0
0 545 0 545 775 0 775 0 0 -115z m-659 -247 c0 -24 2 -125 5 -225 l4 -183
-120 0 -120 0 0 225 0 225 115 0 115 0 1 -42z m659 -190 l0 -113 -277 2 -278
2 -3 111 -3 110 281 0 280 0 0 -112z m-659 -640 c1 -13 1 -161 0 -206 -1 -22
-2 -23 -113 -20 l-113 3 -3 118 -3 117 116 0 c85 0 115 -3 116 -12z m469 -98
c0 -5 -11 -10 -25 -10 -23 0 -25 -4 -25 -45 0 -38 -3 -45 -20 -45 -17 0 -20 7
-20 45 0 41 -2 45 -25 45 -14 0 -25 5 -25 10 0 6 30 10 70 10 40 0 70 -4 70
-10z m65 -19 c22 -45 33 -46 56 -7 12 21 29 36 40 36 16 0 19 -8 19 -55 0 -62
-17 -75 -22 -17 l-3 37 -23 -37 c-29 -47 -46 -48 -69 -5 l-17 32 -6 -33 c-8
-51 -25 -38 -28 23 -3 50 -1 55 17 55 13 0 26 -12 36 -29z"/>
</g>
</svg>
